<svg version="1" xmlns="http://www.w3.org/2000/svg" width="3333.333" height="3333.333" viewBox="0 0 2500.000000 2500.000000"><path d="M1708.7 134.7c-.1 0-5.4.4-11.7.8-6.3.3-12.8.8-14.5 1-1.6.3-6.8.9-11.5 1.5s-10.1 1.4-12 1.6c-3.2.5-35.4 7-39 7.8-5.1 1.3-17.7 4.9-25 7.1-4.7 1.5-9.2 2.8-10.1 3-.9.2-4.9 1.5-9 3-4.1 1.4-8.1 2.8-8.9 3-1.6.4-24.9 9.3-31.5 12-7.4 3.1-10 4.3-28 12.6-16.1 7.4-43.4 21-46 22.9-.5.4-4.6 2.7-9 5-30.5 16.3-87.4 53.6-123.7 81.1-12.5 9.5-46.3 36.3-47.8 37.9-.3.3-4.5 3.9-9.5 8-4.9 4.1-10.5 8.8-12.3 10.5-5.9 5.2-5.5 5.3-16.5-4.2-5.6-4.8-10.4-9-10.7-9.4-3.3-3.7-41.8-34.4-63-50.2-23-17.2-23.2-17.3-32.5-23.6-4.4-3-8.1-5.8-8.3-6.3-.2-.4-.8-.8-1.3-.8-.6 0-3.8-1.9-7.2-4.3-33.1-23-102.7-61.7-128.7-71.5-1.4-.6-4.6-1.9-7-3-12.1-5.6-40-15.9-57-21.1-7.4-2.3-14.8-4.6-16.5-5.1-5-1.5-22.5-5.8-31-7.5-11.2-2.4-11-2.3-21.5-4.1-13.5-2.2-11.9-2-30-3.9-15-1.7-49.7-2.2-63-1.1-24.9 2.2-42.2 5-62 10.3-15 3.9-40.7 12.9-46.7 16.3-1 .5-6.1 3-11.3 5.4-8.9 4.2-28.9 15.2-30 16.5-.3.3-3.8 2.8-7.8 5.5-40.1 26.9-75.6 69.4-100.2 120.1-19.7 40.4-35.6 93.1-42.6 141-1 6.5-1 6.8-1.8 12.5-.4 3-1 6.8-1.2 8.4-.3 1.6-.7 5.4-1 8.5-.3 3.1-.7 6.9-.9 8.6-.2 1.6-.7 6.6-1 11-.4 4.4-.9 9.6-1 11.5-1.9 19-2.5 81.9-1.1 108 1.4 25.1 2.2 38.2 3.1 46.5.2 2.2.9 8.7 1.5 14.5.6 5.8 1.3 12.1 1.5 14 .3 1.9.7 5.3.9 7.5 1 8.7 2.7 22.1 3.1 24.5.2 1.4.8 5.6 1.4 9.5.6 3.8 1.2 8.6 1.5 10.5.6 5.1 5.4 33.3 7.1 41.5.8 3.8 1.7 9.1 2 11.6l.6 4.6-13.3 4.7c-14.6 5.2-27.6 10.1-32.5 12.2-1.7.8-3.4 1.4-3.8 1.4-.4 0-2.1.7-3.8 1.5-1.8.8-6.8 2.8-11.2 4.5-9.6 3.8-31.3 13-41 17.5-3.8 1.7-9.5 4.2-12.5 5.6-7.6 3.3-56.6 27.8-66.8 33.4-14 7.6-40.1 22.8-48.2 28-10.8 6.9-39.5 25.9-40.4 26.7-.6.5-4.9 3.6-9.6 7-7.9 5.7-29.1 22-31.6 24.3-.6.5-3.3 2.8-6 5-52.4 43.3-95 94.6-119.8 144.2-9.7 19.4-18.9 43.7-23.2 61.3-5.6 23.2-7.8 41.4-7.8 64.5 0 13.6 1 32.4 1.9 35.5.2.8.7 3.7 1 6.5.3 2.7.7 5.9.9 7 .2 1.1 1.2 5.6 2.1 10 5.2 25.5 14.5 52.4 27 78 8.3 17.1 25.5 46.6 27.6 47.3.5.2.9.9.9 1.6 0 .7.8 2.1 1.8 3.2.9 1 3.1 3.9 4.7 6.4 1.7 2.4 7.4 10 12.7 16.7 10.4 13 11.7 14.6 18.8 22.7 6.8 7.8 38.5 39.3 47.4 47.2 4.3 3.8 8.3 7.4 9 7.9 1.2 1.1 10.7 8.9 13.9 11.5 1.1.8 2.4 2 3.1 2.5 1.8 1.8 22.2 17.4 27.3 21 9.7 6.9 31.7 22.1 34.8 24 13.5 8.4 18.5 11.5 29.5 18.2 12.6 7.6 16.3 9.6 36.5 20.5 6.1 3.2 11.8 6.3 12.8 6.9 7.7 4.2 35.1 17.5 48.7 23.6 3 1.4 7.3 3.3 9.5 4.3s5.6 2.5 7.5 3.3c1.9.8 6 2.6 9 3.9 3 1.4 14.5 6 25.5 10.3 11 4.2 20.9 8.1 22 8.6 4.9 2 17.8 6.7 26 9.4 5 1.6 9.2 3.1 9.4 3.2.3.2-.7 6.5-4.4 26.3-.8 4.7-1.8 10.5-2.1 13-.3 2.5-.7 4.7-.9 5-.2.3-.6 3-1 6-.3 3-.8 6.2-1 7-.2.8-.7 3.5-1 6-.7 5.4-1.4 9.6-2 13-.2 1.4-.7 5-1 8-.3 3-1 9.1-1.6 13.5-1 8.5-1.4 11.8-2.4 20.5-.3 3-.8 7.1-1 9-.2 1.9-.7 7.3-1 12-.3 4.7-.8 10.5-1 13-3.3 39-3.3 110.3 0 139.5.3 2.2.7 6.7 1 10 .3 3.3.8 8 1.1 10.5 1 8.8 2.5 20.5 2.9 23 .9 5.9 3.8 22.9 4.6 27 1.3 7.5 7.5 33.9 10.3 44.4 3.4 12.4 12.5 39.8 13.7 41.1.5.5.9 1.5.9 2.2 0 3.5 15.1 36 24.2 52.1 8 14.2 23.3 37 29.3 43.8.6.7 2.6 3.1 4.5 5.5 20.4 25.2 51 50.7 79.3 66.2 7.4 4.1 21.6 11.2 25.7 13 1.9.8 5.5 2.4 8 3.5 18.6 8.2 56 17.9 80 20.7 3 .4 5.7.8 6 1 .3.1 5.5.7 11.5 1.1 20 1.5 63.3.9 77.9-1.1 1.7-.2 8.3-1.1 14.6-2 6.3-.9 12.4-1.8 13.5-2 19.1-2.7 55.5-11.8 83.5-20.9 34.7-11.2 85.8-33.5 118-51.3 3-1.7 9.6-5.3 14.5-8.1 5-2.7 12-6.7 15.5-8.9 3.6-2.2 7-4.2 7.6-4.4 3.2-1.3 53.2-34.1 65.6-43.1 9.6-7 35.4-26.3 35.8-26.7.3-.3 3.4-2.8 7-5.6 3.6-2.7 6.7-5.2 7-5.5.3-.3 5.4-4.5 11.4-9.4 10.6-8.6 12.7-10.3 21-17.6 2.3-2 4.9-4.1 5.8-4.9 1.5-1.1 3.8.4 19 13.1 36.8 30.7 74 58.5 110.3 82.3 21.1 13.8 23.4 15.3 38 24 14.7 8.8 15.6 9.3 28 16 5 2.7 10.1 5.6 11.5 6.6 1.4.9 2.8 1.7 3.2 1.8.5.1 7.6 3.5 15.9 7.6 17.4 8.7 36.8 17.4 51.9 23.5 5.8 2.3 11.4 4.6 12.5 5.1 6.2 2.6 35.3 12.4 45.8 15.3 22.6 6.4 46.5 12 56.2 13.1 2.2.3 5.1.7 6.4 1 25.1 4.8 72.7 6.3 98.3 3 7.3-.9 24.4-3.6 25.8-4 .8-.2 3-.7 4.9-1 1.9-.3 3.7-.8 4.1-1 .4-.2 2.2-.7 4.1-1 4.3-.7 18.3-4.9 27.4-8.2 13.3-4.8 14.7-5.4 22-8.8 4-1.9 7.5-3.5 7.8-3.5.3 0 4.9-2.5 10.2-5.5 5.4-3 9.9-5.5 10.1-5.5.6 0 25.8-17.1 26.4-17.9.3-.3 4.3-3.7 9-7.5 9.4-7.7 29.3-27.3 35.5-35.1 2.2-2.8 4.3-5.2 4.6-5.5 1-.8 17.2-23.1 20-27.5 1.4-2.2 4.2-6.6 6.2-9.7 2.1-3.1 3.7-5.9 3.7-6.3 0-.4.9-2 2-3.5 2-2.8 17-32.3 17-33.4 0-.3 1.4-3.5 3-7.2 1.7-3.6 4.7-10.9 6.6-16.2 2-5.4 4-10.6 4.4-11.7 3.2-7.6 14.9-47.7 16.4-56 .3-1.7 1.4-6.8 2.5-11.5s2.2-9.9 2.5-11.5c3.8-22.5 6.6-40 7-44 .7-6.5 1.7-14.3 2.1-17.5.4-2.4 1.2-12.2 2-22.5 2.7-35.2 2.7-105.4 0-136-.2-2.2-.6-8.5-1-14s-.9-10.7-1-11.6c-.2-.8-.6-5.5-1-10.5-.4-4.9-.9-9.7-1.1-10.7-.2-1-.6-4.8-1-8.5-.3-3.7-.7-6.9-.9-7.2-.2-.3-.6-3.9-1-8s-.8-7.7-1-8c-.2-.3-.6-3.4-1-7s-.8-6.7-1-7c-.2-.3-.6-3-.9-6-.4-3-1.1-7.8-1.6-10.5-.5-2.8-1.2-6.8-1.5-9-.3-2.2-.8-5.6-1.1-7.5-.4-1.9-.8-4.4-1-5.5-.6-3.2-3.5-18.6-4.5-23.8-.5-2.6-.9-5.2-.9-5.6 0-.5 5.7-2.7 12.8-5 7-2.4 15-5.1 17.7-6.2 2.8-1 12.9-4.8 22.6-8.3 18-6.6 49.8-19.1 57.9-22.8 2.5-1.1 5.4-2.4 6.5-2.9 8.6-3.5 29.3-12.8 42-19 7.2-3.4 13.2-6.3 13.5-6.4 1-.2 31.9-16.4 37.7-19.6 2.1-1.2 8.3-4.8 13.8-7.9 5.5-3.1 13.2-7.6 17-9.9 3.9-2.4 8.6-5.3 10.5-6.4 13.2-7.9 51.7-34.9 63.6-44.8 2.3-1.9 5.2-4.3 6.6-5.4 15.7-12.4 45.7-41 58.8-56 16.7-19.1 29.4-36.4 42.7-58 3.6-5.8 12.9-23.4 16.9-32.1 11.3-24.2 21.5-58 24.9-82.4 2.4-18 3-26 3-45.5 0-24.9-1.8-42.7-6-59.5-.8-3-1.6-6.7-1.9-8.2-.6-3.6-5.1-18.6-8.2-27.1-22.5-63.2-68-123.4-136-179.8-73.8-61.3-179.9-117.9-302.7-161.6-7.5-2.7-13.5-5.1-13.3-5.4.3-.2 1.2-4.5 2-9.4.9-5 1.8-9.9 2-11 3-15.4 8.4-46.3 9.1-53 .3-2.8.8-5.7 1-6.5.2-.8.7-3.8 1-6.6.3-2.8.7-6.1 1-7.3.2-1.2.7-4.9 1-8.2.4-3.3.8-6.8 1-7.7.1-.9.6-4.6.9-8.2.4-3.6.9-8.1 1.1-10 .5-3.6.9-8.2 2-21 .3-4.1.8-9.5 1-12 .4-4 .7-10 2.1-32 .7-10.8.7-70.8 0-82-1.3-21.1-2.1-31.7-3.1-40-.2-1.9-.7-6.3-1-9.8-.4-3.5-.8-7.1-1-8.1-.2-.9-.6-4.4-1-7.6-.4-3.3-.9-6.9-1.1-8-.2-1.1-.7-4-1-6.5-.5-3.9-8-40.7-8.8-43.5-.2-.6-.6-2.4-1-4-25.1-98.5-72.3-171.5-141.9-219.2-17-11.7-42.3-25.3-54.2-29.4-2.2-.7-4.4-1.6-5-2-2.8-1.9-33.4-10.8-42.4-12.4-1.9-.3-3.7-.7-4-.9-.3-.2-2.6-.7-5.1-1-2.5-.3-5.5-.8-6.7-1-7.4-1.5-13.5-2.1-29.1-3.2-9.2-.6-33.1-1.1-33.5-.7z"/></svg>